<?xml version="1.0" encoding="UTF-8" standalone="no"?>
<!-- Created with Inkscape (http://www.inkscape.org/) -->

<svg
   width="129.18407mm"
   height="127.1603mm"
   viewBox="0 0 129.18407 127.1603"
   version="1.1"
   id="svg5"
   xml:space="preserve"
   xmlns="http://www.w3.org/2000/svg"
   xmlns:svg="http://www.w3.org/2000/svg"><defs
     id="defs2" /><g
     id="layer1"
     transform="translate(-38.311025,-26.282047)"><path
       style="fill:#000000;stroke-width:0.264583"
       d="m 85.176143,153.10433 c 0,-0.1859 0.18208,-0.59796 0.404624,-0.91568 0.222544,-0.31773 1.235051,-1.01406 2.250014,-1.54741 1.212742,-0.63728 2.275877,-1.46295 3.101102,-2.40843 0.690644,-0.79128 1.750023,-1.77639 2.35417,-2.18911 0.604149,-0.41273 1.794774,-1.05227 2.645833,-1.42121 0.851061,-0.36894 1.815272,-0.74608 2.142693,-0.8381 0.327422,-0.092 0.595313,-0.33787 0.595313,-0.54634 0,-0.20847 -0.0893,-0.38137 -0.198438,-0.38421 -0.10914,-0.003 -1.469289,-0.17434 -3.022549,-0.38111 -2.080795,-0.277 -3.088587,-0.30293 -3.828934,-0.0985 -0.711864,0.19655 -1.585563,0.87336 -2.996721,2.3214 -1.095544,1.12418 -2.291021,2.23754 -2.656612,2.47414 -0.365593,0.23661 -1.456682,0.61386 -2.424641,0.83834 -1.421879,0.32976 -2.144102,0.35472 -3.759981,0.12998 -1.444598,-0.20093 -2.152509,-0.19659 -2.549011,0.0156 -0.380545,0.20366 -0.499166,0.45068 -0.386652,0.80518 0.125193,0.39444 0.06432,0.47378 -0.266179,0.34696 -0.277712,-0.10657 -0.400177,-0.40857 -0.348032,-0.85823 0.06362,-0.54863 0.384955,-0.84077 1.535668,-1.39616 0.800364,-0.3863 2.099164,-1.25732 2.886223,-1.9356 0.787058,-0.67828 2.096746,-1.56709 2.910416,-1.97512 0.813671,-0.40803 2.27652,-0.93991 3.250774,-1.18195 1.005647,-0.24984 2.080662,-0.36245 2.486858,-0.2605 0.505193,0.12679 0.660416,0.0905 0.528119,-0.1236 -1.075396,-0.36175 -2.274658,-0.76157 -3.331141,-1.07099 -0.654844,-0.18032 -2.143125,-0.696 -3.307291,-1.14594 -1.749558,-0.67619 -2.465814,-0.81278 -4.129765,-0.78753 -1.621647,0.0246 -2.264756,0.16433 -3.307291,0.71854 -0.711806,0.3784 -1.621616,1.00159 -2.021798,1.38488 -0.400182,0.38328 -0.727604,0.88891 -0.727604,1.12362 0,0.23472 0.103579,0.53986 0.230177,0.67811 0.132254,0.14442 0.07425,0.6206 -0.136353,1.11934 -0.201592,0.47739 -0.649581,0.97561 -0.995532,1.10713 -0.345951,0.13153 -0.884671,0.17229 -1.19716,0.0906 -0.312486,-0.0817 -0.748118,-0.49658 -0.968068,-0.92192 -0.232558,-0.44971 -0.324562,-1.01075 -0.219853,-1.34066 0.09903,-0.31203 0.432591,-0.77836 0.741238,-1.03631 0.308647,-0.25794 0.765561,-0.47294 1.015365,-0.47779 0.249804,-0.005 1.056412,-0.54366 1.792462,-1.19738 0.736052,-0.65371 1.806845,-1.42762 2.379541,-1.71979 0.572698,-0.29217 1.277109,-0.53121 1.565359,-0.53121 0.288253,0 0.592381,-0.11049 0.675841,-0.24554 0.08346,-0.13504 -0.07843,-0.31859 -0.359759,-0.40788 -0.281329,-0.0893 -1.579904,-0.80643 -2.88572,-1.59365 -1.650191,-0.99482 -2.766171,-1.4811 -3.659521,-1.5946 -1.005782,-0.12778 -1.716868,-0.0121 -3.269684,0.53171 -2.473401,0.93872 -5.162041,1.88835 -7.394388,1.21804 -0.901903,-0.2807 -2.243334,-0.98478 -3.024575,-1.5875 -1.261835,-0.78768 -2.192355,-1.64048 -3.345113,-2.48702 -0.508029,-0.37026 -0.536531,-0.43681 -0.126548,-0.29548 0.291042,0.10033 1.156793,0.29789 1.923892,0.43903 0.985152,0.18125 1.87867,0.16141 3.042708,-0.0676 0.906391,-0.17829 2.124233,-0.38456 2.706316,-0.45838 2.362237,-0.54691 5.245965,0.89606 7.027074,0.99258 0.282453,0 0.513551,-0.10493 0.513551,-0.23318 0,-0.12825 -0.436891,-0.56641 -0.970865,-0.9737 -0.533976,-0.40728 -1.525944,-1.22508 -2.204373,-1.81734 -0.678429,-0.59225 -1.580991,-1.34911 -2.005698,-1.68191 -0.424703,-0.3328 -1.028202,-0.67015 -1.341112,-0.74966 -0.312906,-0.0795 -1.324936,0.0574 -2.248957,0.30418 -0.92402,0.24682 -2.156286,0.5453 -2.738369,0.66329 -0.59756,0.12113 -1.583209,0.10338 -2.2639,-0.0408 -0.663061,-0.14041 -2.105341,-0.81592 -3.205067,-1.50113 -1.099725,-0.6852 -2.476172,-1.60301 -3.05877,-2.03957 -0.582598,-0.43657 -1.236747,-1.10132 -1.453664,-1.47725 -0.394395,-0.68349 -0.394395,-0.68349 0.427878,-0.39473 0.45225,0.15882 0.987658,0.39435 1.189796,0.52341 0.202137,0.12906 1.809481,0.21564 3.571874,0.19241 1.762394,-0.0232 3.709954,0.0325 4.327911,0.12384 0.617957,0.0913 1.760265,0.54949 2.538463,1.01809 0.778198,0.46861 1.623765,0.93216 1.879039,1.03012 0.255275,0.098 -0.0536,-0.39834 -0.686379,-1.10288 -0.632783,-0.70455 -1.745827,-2.07156 -2.473431,-3.03781 -0.727605,-0.96625 -1.162428,-1.67661 -1.770207,-1.91864 -1.350047,-0.8211 -2.504952,-0.52268 -3.676263,-0.53093 -4.722355,0.0504 -6.285796,-0.64421 -8.896361,-4.22572 -0.863416,-1.15839 -1.854715,-2.57812 -2.202887,-3.15496 l -0.633039,-1.0488 0.917635,0.69992 c 0.5047,0.38495 1.26122,0.83054 1.681156,0.9902 2.601739,0.63273 5.218638,0.79766 7.436216,2.12582 0.582083,0.34765 1.686313,1.16197 2.453844,1.80962 0.767531,0.64765 1.457557,1.1155 1.533392,1.03966 0.07583,-0.0758 -0.231195,-0.76383 -0.682288,-1.52889 -0.451092,-0.76505 -1.186244,-2.11893 -1.63367,-3.00862 -0.447426,-0.88969 -1.155139,-2.05123 -1.572697,-2.5812 -0.645357,-0.81909 -1.046889,-1.0329 -2.677846,-1.42589 -1.055259,-0.25427 -2.22498,-0.61648 -2.59938,-0.80491 -0.374401,-0.18843 -0.835464,-0.52904 -1.024584,-0.75692 -0.189121,-0.22787 -0.632346,-0.41432 -0.984944,-0.41432 -0.352599,0 -0.933333,-0.29224 -1.29052,-0.64943 -0.357187,-0.35719 -0.649432,-0.83885 -0.649432,-1.07036 0,-0.23151 0.292245,-0.71317 0.649432,-1.07036 0.393281,-0.39328 0.95447,-0.64943 1.422812,-0.64943 0.425358,0 0.924877,0.18254 1.110042,0.40565 0.185164,0.22311 0.393396,1.02678 0.462737,1.78594 0.01849,1.65462 0.771774,2.01847 2.128181,2.19274 0.826561,0.10145 1.787241,0.2909 2.134845,0.42101 0.347604,0.1301 0.686654,0.1819 0.753445,0.11511 0.06679,-0.0668 -0.134753,-0.80617 -0.447874,-1.64306 -0.31312,-0.83689 -0.914121,-2.7496 -1.335556,-4.25046 C 48.505689,100.1684 47.946579,98.641668 47.684657,98.276524 47.422736,97.911378 46.494061,97.2712 45.620936,96.853904 44.747811,96.436609 43.530949,95.884929 42.916799,95.62795 42.302648,95.370968 41.62761,94.968844 41.416714,94.734338 41.205818,94.499833 40.600503,93.540932 40.07157,92.60345 c -0.803435,-1.424011 -1.041095,-2.229519 -1.444174,-4.894791 -0.265363,-1.754653 -0.388277,-3.365386 -0.273143,-3.579408 0.147997,-0.275111 0.262745,-0.104428 0.391615,0.58251 0.131899,0.703079 0.572646,1.340831 1.594608,2.307359 1.308583,1.104554 2.785182,2.122194 3.802588,3.146512 1.358333,1.374598 1.993911,2.282809 2.638511,3.770313 0.627019,1.446929 0.813258,1.717278 0.711949,1.033478 -0.07546,-0.509323 -0.219233,-2.652448 -0.319496,-4.7625 C 47.068167,87.979071 46.839954,86.006139 46.629749,85.501566 46.43066,85.02367 45.943638,84.48873 45.547477,84.312809 45.151317,84.13689 44.708124,83.901053 44.562603,83.78873 44.417082,83.676406 43.749946,83.177437 43.080079,82.679909 42.410212,82.182384 41.497528,81.20188 41.051893,80.501015 c -0.445636,-0.700865 -0.930199,-1.75055 -1.076807,-2.332633 -0.146608,-0.582083 -0.29339,-2.189427 -0.326181,-3.571875 -0.03279,-1.382448 -0.03399,-2.989791 -0.0027,-3.571874 l 0.05696,-1.058334 0.353326,1.13147 c 0.194329,0.622308 0.559489,1.446114 0.811468,1.830681 0.251978,0.384569 1.146035,1.438648 1.986792,2.342398 0.840757,0.903751 1.822634,2.108885 2.181949,2.678078 0.359315,0.56919 0.95344,1.863453 1.320278,2.876132 0.556574,1.536464 0.690545,1.731751 0.809352,1.179782 0.07831,-0.363802 0.213075,-1.316302 0.299487,-2.116666 0.08641,-0.800365 0.344483,-2.419641 0.573492,-3.598389 0.416381,-2.143183 0.416381,-2.143183 -0.310197,-3.307291 -0.399618,-0.640263 -1.230956,-1.708682 -1.847419,-2.374265 -0.616462,-0.665586 -1.373816,-1.782048 -1.683008,-2.48103 -0.309193,-0.698981 -0.561269,-1.761754 -0.56017,-2.361721 0.0011,-0.599964 0.121418,-1.864751 0.267375,-2.810637 0.145957,-0.945885 0.461651,-2.46861 0.701543,-3.38383 0.239891,-0.915223 0.524152,-1.718418 0.63169,-1.784882 0.107538,-0.06646 0.334294,0.682358 0.503903,1.664042 0.215819,1.24914 0.656529,2.380495 1.468283,3.769254 0.637947,1.091406 1.333138,2.401093 1.544869,2.910416 0.211731,0.509323 0.474167,1.640417 0.583192,2.513542 l 0.198226,1.5875 0.595013,-1.719792 c 0.327258,-0.945885 0.970705,-2.61276 1.429884,-3.704167 0.626991,-1.49027 0.793674,-2.206947 0.669417,-2.878251 -0.091,-0.49163 -0.454847,-1.548241 -0.808549,-2.348026 -0.353704,-0.799782 -0.643096,-1.689221 -0.643096,-1.976532 0,-0.287311 -0.357188,-0.856047 -0.79375,-1.263857 -0.53026,-0.495337 -0.79375,-0.997079 -0.79375,-1.511472 0,-0.423497 0.242763,-1.030573 0.539473,-1.349054 0.296711,-0.318482 0.832492,-0.579057 1.190625,-0.579057 0.358134,0 0.889277,0.238125 1.180318,0.529167 0.318364,0.318362 0.529167,0.881943 0.529167,1.414724 0,0.505791 -0.22693,1.147212 -0.529167,1.495692 -0.291041,0.335574 -0.529166,0.773126 -0.529166,0.972336 0,0.19921 0.357555,1.150771 0.794568,2.114582 l 0.794568,1.752383 1.495241,-2.485798 c 0.822382,-1.367186 1.774514,-2.854221 2.115848,-3.304518 0.341335,-0.4503 0.620608,-1.06585 0.620608,-1.367896 0,-0.302043 -0.297656,-1.925892 -0.661458,-3.608552 -0.900032,-3.273731 -0.683471,-5.655233 1.330391,-8.222887 0.64458,-0.791372 1.691518,-1.917764 2.326528,-2.503096 0.635009,-0.585331 1.468906,-1.311502 1.853105,-1.613713 l 0.698542,-0.549474 -0.719246,1.38632 c -0.666196,1.284061 -0.722351,1.641385 -0.761305,4.844254 -0.02313,1.901864 -0.155281,3.874653 -0.293667,4.383976 -0.138385,0.509323 -0.342408,1.223698 -0.453384,1.5875 -0.143751,0.471247 0.412337,0.03933 1.933804,-1.501992 l 2.135579,-2.163448 -0.391679,-2.421681 c -0.304424,-1.882204 -0.325755,-2.6665 -0.09575,-3.520661 0.162759,-0.60444 0.583523,-1.666527 0.93503,-2.360195 0.351509,-0.693667 1.144138,-1.767223 1.761397,-2.38568 0.61726,-0.618457 1.359392,-1.30394 1.649182,-1.523296 0.289791,-0.219356 1.271032,-0.904884 2.180537,-1.523397 0.909506,-0.618512 1.653646,-1.056173 1.653646,-0.97258 0,0.08359 -0.297656,0.542236 -0.661458,1.019205 -0.611582,1.070561 -1.158933,2.439546 -1.332783,3.535414 -0.095,0.687832 -0.397637,2.182053 -0.672518,3.32049 -0.274883,1.138438 -0.747921,2.41836 -1.051197,2.844271 -0.303276,0.425911 -0.470837,0.774384 -0.372359,0.774384 0.09848,0 0.944308,-0.561891 1.879621,-1.248646 1.099936,-0.807629 1.749578,-1.48514 1.839322,-1.918229 0.38204,-1.124237 0.738958,-2.322466 0.904563,-3.340611 0.156088,-0.977065 0.579877,-2.402345 0.941753,-3.167288 0.361876,-0.764943 1.009927,-1.734925 1.440119,-2.155515 0.430188,-0.420591 1.527865,-1.162891 2.439278,-1.649558 0.911416,-0.486666 1.716648,-0.956775 1.789409,-1.044687 0.07276,-0.08791 0.906198,-0.532945 1.852083,-0.988961 0.945885,-0.456016 2.017448,-0.914937 2.38125,-1.019823 0.515347,-0.148578 0.273621,0.209902 -1.094309,1.62287 -1.425477,1.472412 -1.863328,2.137093 -2.32756,3.533365 -0.314487,0.945886 -0.867773,2.315104 -1.229524,3.042708 -0.361752,0.727604 -0.844648,1.587389 -1.073105,1.910633 -0.366419,0.518448 -0.123717,0.459218 2.059249,-0.502551 2.25715,-0.994452 2.573446,-1.226617 3.599103,-2.641788 1.228227,-2.049928 2.844472,-2.836027 5.194535,-2.867335 0.550643,0 1.8932,0.357187 2.983463,0.79375 1.090263,0.436562 2.126721,0.79375 2.303238,0.79375 0.176516,0 0.762833,-0.22529 1.302924,-0.500645 0.753592,-0.384203 0.981985,-0.417563 0.981985,-0.143433 0,0.196467 -0.446484,0.808711 -0.992187,1.360541 -0.545703,0.551831 -1.577861,1.420047 -2.293684,1.92937 -0.715824,0.509323 -1.846918,1.214076 -2.513541,1.566119 -0.752229,0.397249 -1.814301,0.682925 -2.799546,0.75302 -1.182631,0.08414 -1.958628,-0.02846 -3.042708,-0.441506 -0.800364,-0.304947 -1.791406,-0.55451 -2.202317,-0.554583 -0.410911,-7.3e-5 -2.226614,0.713832 -4.034896,1.586457 -1.452213,0.880209 -3.262963,1.633251 -4.493987,2.514122 -0.47217,0.364564 -0.417566,0.38299 0.677034,0.228462 0.654844,-0.09245 1.309687,-0.25643 1.455208,-0.36441 0.145521,-0.10798 1.03849,-0.272286 1.984375,-0.365124 1.211673,-0.118925 2.106017,-0.0495 3.027019,0.234977 0.718973,0.222076 1.909598,0.811845 2.645833,1.310598 0.736232,0.498753 2.102411,1.152458 3.035951,1.452679 0.933537,0.30022 1.945568,0.547678 2.248958,0.549907 0.453101,0.0033 0.480734,0.04986 0.154739,0.260532 -0.218282,0.141064 -0.854422,0.258303 -1.413648,0.260531 -0.559223,0.0022 -2.226098,0.25241 -3.704166,0.555958 -1.619584,0.332612 -3.130624,0.492807 -3.802888,0.403168 -0.622721,-0.08303 -2.142173,-0.726992 -3.439583,-1.457732 -1.27825,-0.719947 -2.851457,-1.462397 -3.496016,-1.649889 -1.212165,-0.403228 -2.217618,0.387144 -3.139758,1.028065 -0.549897,0.400182 -1.173943,0.874637 -1.386771,1.054344 -0.212828,0.179708 -0.773914,0.636776 -1.246857,1.015708 -0.472942,0.378931 -0.859896,0.797445 -0.859896,0.93003 0,0.132585 0.400842,0.241063 0.89076,0.241063 0.489916,0 1.503902,0.254811 2.253297,0.566246 1.240168,0.515391 1.403734,0.529124 1.82122,0.152906 0.252275,-0.227337 0.780111,-0.493551 1.172972,-0.591587 0.557919,-0.139226 0.862007,-0.03053 1.389062,0.496526 0.371123,0.371125 0.674772,0.973204 0.674772,1.337951 0,0.364746 -0.260575,0.905941 -0.579056,1.20265 -0.318482,0.296712 -0.802558,0.539475 -1.075727,0.539475 -0.273169,0 -0.756735,-0.136208 -1.074589,-0.302686 -0.317855,-0.166476 -0.978496,-0.710385 -1.468091,-1.208683 -0.489593,-0.4983 -1.201476,-1.024357 -1.581957,-1.169016 -0.380481,-0.14466 -1.175424,-0.341686 -1.8707,-0.403726 -1.969331,-0.251955 -3.075588,1.241882 -4.270991,2.430936 -0.8813,0.868572 -1.857802,1.989296 -2.170005,2.490502 -0.312204,0.501205 -0.930512,1.235506 -1.374018,1.63178 -0.443507,0.396272 -0.726133,0.800738 -0.628059,0.898811 0.09807,0.09807 0.433237,0.09741 0.744806,-0.0016 0.31157,-0.09889 0.953486,-0.51958 1.42648,-0.934876 0.472994,-0.415295 1.48161,-1.000101 2.241369,-1.299569 0.759759,-0.299469 1.902145,-0.544489 2.538637,-0.544489 0.63649,0 1.912003,0.236588 2.834476,0.525754 0.92247,0.289163 2.153467,0.528862 2.735551,0.532664 l 1.058333,0.0069 -1.863781,1.033748 c -1.02508,0.568563 -2.673696,1.295405 -3.663592,1.61521 -1.352508,0.436948 -2.138678,0.540993 -3.163303,0.418642 -0.749919,-0.08955 -2.018334,-0.228547 -2.818699,-0.308883 -1.041568,-0.104547 -1.643226,-0.03277 -2.116666,0.25254 -0.363802,0.219233 -0.899583,0.509111 -1.190625,0.644168 -0.291042,0.135059 -1.284507,1.518033 -2.207702,3.073278 -0.923194,1.555244 -1.62836,2.877891 -1.567035,2.939216 0.06132,0.06133 0.640681,-0.393803 1.287457,-1.011396 0.951776,-0.908828 1.527927,-1.208315 3.022244,-1.570979 1.015457,-0.246335 2.858317,-0.536263 4.095244,-0.644171 1.236927,-0.10791 2.341851,-0.172966 2.455386,-0.144566 0.113533,0.0284 0.560017,-0.131214 0.992188,-0.354697 0.432167,-0.223483 0.780584,-0.313979 0.77426,-0.201102 -0.0063,0.112876 -1.069826,1.098201 -2.36334,2.189607 -1.304078,1.10032 -2.977681,2.241383 -3.756617,2.561262 -0.820649,0.33701 -2.340836,0.653457 -3.655929,0.761031 -1.238136,0.10128 -2.69447,0.374409 -3.236299,0.606954 -0.774424,0.332375 -1.107863,0.707231 -1.558878,1.752513 -0.315554,0.731332 -0.914037,2.334297 -1.329961,3.562143 -0.415924,1.227844 -0.756226,2.384968 -0.756226,2.571382 0,0.186418 0.171318,0.273199 0.380707,0.19285 0.209389,-0.08035 0.460519,-0.509471 0.558066,-0.953601 0.09755,-0.444129 0.706264,-1.336415 1.352705,-1.982856 0.646441,-0.64644 1.827456,-1.463738 2.624478,-1.816222 0.797023,-0.35248 1.668893,-0.640873 1.937489,-0.640873 0.268597,0 1.005952,-0.182618 1.638569,-0.405818 0.632616,-0.2232 1.421491,-0.660673 1.753056,-0.972161 0.331566,-0.311492 0.602846,-0.431816 0.602846,-0.267391 0,0.164423 -0.297656,0.737574 -0.661458,1.273667 -0.624884,1.443002 -1.526449,2.660996 -2.488471,3.581501 -1.572588,1.493221 -2.097633,1.818129 -3.770313,2.333156 -1.068815,0.329094 -2.300487,0.704623 -2.737049,0.834507 -0.512413,0.152452 -1.054853,0.649795 -1.530412,1.403177 -0.497937,0.788837 -0.8547,1.882199 -1.100904,3.373922 -0.200333,1.213795 -0.435421,2.891507 -0.52242,3.728252 -0.087,0.836744 -0.11997,1.521354 -0.07327,1.521354 0.0467,0 0.56178,-0.2304 1.144626,-0.512001 0.792362,-0.410805 4.181307,-1.402586 3.282296,-2.519516 -0.194468,-0.234317 -0.262848,-0.680556 -0.164396,-1.072819 0.09271,-0.369393 0.403663,-0.906722 0.691003,-1.194062 0.287341,-0.28734 0.820093,-0.522435 1.183895,-0.522435 0.363802,0 0.899584,0.238125 1.190625,0.529166 0.32609,0.326089 0.529167,0.881944 0.529167,1.448414 0,0.750345 -0.14343,0.993418 -0.780611,1.322917 -0.429336,0.222017 -0.884349,0.348783 -1.08955,0.403669 -0.164147,0.0439 -0.729121,0.368924 -1.242677,0.819833 -0.513556,0.450908 -1.481774,1.053875 -2.151596,1.339929 -0.669821,0.286052 -1.53271,0.82033 -1.917531,1.187283 -1.477852,1.559913 -0.963331,4.034806 -0.779708,6.147432 0.158816,1.740363 0.288756,3.411696 0.288756,3.714075 0,0.302379 0.103845,0.549781 0.230767,0.549781 0.126922,0 0.30867,-0.487175 0.403884,-1.082614 0.09521,-0.595437 0.407791,-1.542611 0.694614,-2.104832 0.286823,-0.562219 0.989758,-1.474028 1.562076,-2.02624 0.572319,-0.552212 1.570188,-1.452626 2.217488,-2.000919 0.707418,-0.599215 1.266128,-1.338046 1.400563,-1.852084 0.176055,-0.673179 0.24191,-0.320241 0.309433,1.658356 0.04718,1.382448 -0.03842,3.010416 -0.190219,3.617708 -0.151798,0.607293 -0.544474,1.510919 -0.872614,2.008061 -0.32814,0.497139 -1.396054,1.548077 -2.373142,2.335413 -0.977089,0.787339 -1.91704,1.693992 -2.088781,2.014786 -0.189908,0.35473 -0.254829,1.132245 -0.165692,1.984375 0.08061,0.770609 0.544311,2.632479 1.030447,4.137479 l 0.883884,2.73637 0.02155,-1.94262 c 0.01307,-1.17755 0.194143,-2.34304 0.459782,-2.95936 0.241023,-0.55921 1.017822,-1.749836 1.726218,-2.645834 0.708396,-0.895998 1.424229,-1.889151 1.590739,-2.207006 0.166511,-0.317854 0.314947,-0.853636 0.329859,-1.190625 0.01491,-0.336989 0.18831,0.101669 0.38533,0.974794 0.197019,0.873125 0.363413,2.22853 0.369762,3.012011 0.0063,0.783482 -0.129122,1.91457 -0.301049,2.51354 -0.171927,0.59897 -0.529114,1.40507 -0.79375,1.79133 -0.527672,0.86057 -0.979533,1.81545 -1.406516,2.5256 -0.685491,1.1368 -0.925538,1.83753 -0.926042,2.70322 -5.29e-4,0.90021 0.310427,1.75098 1.353851,3.70416 0.744992,1.39456 1.521594,2.77368 1.725782,3.06472 0.340341,0.48511 0.356638,0.45207 0.195738,-0.39687 -0.482872,-1.22527 -0.634985,-2.47779 -0.557156,-3.56345 0.111158,-1.46976 0.389447,-2.49685 1.107294,-4.08673 0.527352,-1.16796 0.923991,-2.39503 0.88142,-2.7268 -0.04257,-0.33178 0.04166,-0.64423 0.187183,-0.69434 0.14552,-0.0501 0.589793,0.84285 0.987271,1.98437 0.496765,1.42666 0.724225,2.61478 0.727604,3.8006 0.0027,0.94881 -0.231931,2.5798 -0.521412,3.62442 -0.28948,1.04463 -0.781746,2.38935 -1.093926,2.98828 -0.481472,0.92373 -0.517751,1.1821 -0.239092,1.70278 0.180678,0.3376 0.881304,1.3122 1.556947,2.16578 1.130173,1.42781 1.23496,1.49905 1.30994,0.8905 0.245933,-1.95126 1.705897,-3.72357 1.969466,-5.43469 0.07448,-0.66075 0.335799,-1.42279 0.580713,-1.69342 0.244917,-0.27062 0.650391,-0.54568 0.901054,-0.61123 0.250664,-0.0656 0.71932,-0.0217 1.041458,0.0975 0.322138,0.11917 0.780643,0.62545 1.018895,1.12508 0.415451,0.87121 0.409286,0.94197 -0.150569,1.72822 -0.478182,0.67154 -0.766403,0.81981 -1.593644,0.81981 -0.757166,0 -1.105948,0.14898 -1.393745,0.59531 -0.211122,0.32743 -0.52247,1.15406 -0.691888,1.83696 -0.169416,0.6829 -0.306563,1.87353 -0.304771,2.64583 0.0033,1.40419 0.0033,1.40419 2.447395,3.78726 1.344277,1.31068 2.762486,2.66237 3.151579,3.00374 0.665494,0.58387 0.644179,0.49555 -0.359423,-1.4894 -0.586777,-1.16054 -1.128747,-2.65908 -1.204381,-3.33009 -0.08043,-0.71358 0.0058,-1.57877 0.20786,-2.08429 0.189955,-0.47535 0.625424,-1.48935 0.967713,-2.25334 0.342286,-0.76398 0.723286,-1.38906 0.846667,-1.38906 0.12338,0 0.164161,0.53381 0.09062,1.18624 -0.0758,0.67255 0.01135,1.53643 0.201256,1.99491 0.184229,0.44477 0.531786,0.95276 0.772347,1.12887 0.240562,0.1761 0.689409,0.68032 0.99744,1.12047 0.30803,0.44016 0.690113,1.50382 0.849069,2.3637 0.158956,0.85988 0.289012,2.34849 0.289012,3.30803 0,1.10779 0.142164,1.94758 0.389459,2.30065 0.214201,0.30581 1.272193,1.10621 2.351093,1.77866 1.078899,0.67245 2.023893,1.22263 2.099987,1.22263 0.07609,0 -0.327057,-0.89937 -0.895885,-1.99861 -0.98413,-1.90178 -1.034237,-2.11725 -1.034237,-4.44734 0,-1.82921 0.104971,-2.57868 0.414901,-2.96233 0.397864,-0.4925 0.408678,-0.48434 0.263348,0.19885 -0.08336,0.39185 -0.01289,1.01677 0.156577,1.38872 0.169474,0.37195 0.824513,0.97889 1.455645,1.34876 0.631129,0.36987 1.44531,0.99365 1.809287,1.38619 0.363977,0.39253 0.830186,1.31045 1.036018,2.03983 0.205833,0.72938 0.452951,2.04052 0.549154,2.91364 0.0962,0.87313 0.331329,1.80029 0.522504,2.06037 0.191172,0.26007 1.343255,0.88297 2.560182,1.38422 1.216925,0.50124 2.365563,0.91353 2.552528,0.9162 0.186963,0.003 -0.08794,-0.37084 -0.610902,-0.83001 -0.522959,-0.45916 -1.176977,-1.27812 -1.453374,-1.8199 -0.276397,-0.54178 -0.699791,-1.77032 -0.940877,-2.73009 -0.241086,-0.95977 -0.36285,-2.04582 -0.270584,-2.41343 0.09227,-0.36762 0.292576,-0.6684 0.44513,-0.6684 0.152553,0 0.207533,0.22004 0.122179,0.48897 -0.122124,0.38478 0.141877,0.6465 1.23894,1.22822 0.766773,0.40658 1.73028,0.91399 2.141122,1.12757 0.410843,0.21359 1.096428,0.87073 1.523524,1.46032 1.132682,1.47558 1.494115,3.48988 2.275316,4.96519 0.385773,0.65307 0.692925,0.79276 2.315104,1.05295 1.028674,0.16499 2.346568,0.40432 2.928652,0.53184 0.582083,0.12753 1.636593,0.30635 2.343356,0.39739 0.819041,0.1055 1.226465,0.0708 1.123542,-0.0958 -0.08881,-0.14371 -1.017023,-0.40559 -2.062683,-0.58197 -1.630918,-0.27509 -2.058985,-0.46856 -3.01108,-1.36094 -0.75787,-0.71033 -1.381905,-1.68608 -1.967571,-3.0765 -0.523709,-1.24334 -0.910363,-2.68017 -0.992958,-3.68989 -0.09309,-1.13812 -0.04149,-1.65365 0.165545,-1.65365 0.165444,0 0.300807,0.33383 0.300807,0.74185 0,0.4918 0.294082,1.02688 0.872493,1.5875 1.045004,0.9229 2.448782,1.33043 3.67924,1.76541 0.692999,0.24364 1.58723,0.82792 2.018014,1.31856 0.425466,0.48458 0.991597,1.45911 1.258073,2.16564 0.266472,0.70652 0.703738,1.66164 0.971703,2.12248 0.452535,0.77828 0.603964,0.84418 2.127694,0.92605 0.90227,0.0485 2.20808,0.0286 2.9018,-0.0442 1.05172,-0.11031 1.3396,-0.26418 1.73251,-0.92604 0.25917,-0.43656 0.68847,-1.37181 0.95401,-2.07833 0.26555,-0.70653 0.83092,-1.68106 1.25638,-2.16564 0.43078,-0.49064 1.32502,-1.07492 2.01802,-1.31856 1.24204,-0.52461 2.82804,-0.91817 3.70607,-1.79225 0.5273,-0.54403 0.84566,-1.14167 0.84566,-1.5875 0,-0.39325 0.13536,-0.71501 0.30081,-0.71501 0.20703,0 0.25863,0.51553 0.16554,1.65365 -0.0826,1.00972 -0.46925,2.44655 -0.99296,3.68989 -0.58566,1.39042 -1.2097,2.36617 -1.96757,3.0765 -0.95209,0.89238 -1.38016,1.08585 -3.01108,1.36094 -1.04566,0.17638 -1.97387,0.43826 -2.06268,0.58197 -0.10293,0.16653 0.3045,0.20125 1.12354,0.0958 0.70676,-0.091 1.76127,-0.26986 2.34336,-0.39739 0.58208,-0.12752 1.89997,-0.36685 2.92865,-0.53184 2.49461,-0.35179 2.81971,-1.78776 3.50959,-3.93053 0.16736,-0.5586 0.65373,-1.49802 1.08083,-2.08761 0.42709,-0.58959 1.11268,-1.24673 1.52352,-1.46032 0.41084,-0.21358 1.37435,-0.72099 2.14112,-1.12757 1.09707,-0.58172 1.36107,-0.84344 1.23894,-1.22822 -0.0853,-0.26893 -0.0304,-0.48897 0.12218,-0.48897 0.15256,0 0.35286,0.30078 0.44513,0.6684 0.0923,0.36761 -0.0295,1.45366 -0.27058,2.41343 -0.24109,0.95977 -0.66448,2.18831 -0.94088,2.73009 -0.27639,0.54178 -0.93041,1.36074 -1.45337,1.8199 -0.52296,0.45917 -0.79787,0.83267 -0.6109,0.83001 0.18696,-0.003 1.3356,-0.41496 2.55252,-0.9162 1.21693,-0.50125 2.36901,-1.12415 2.56019,-1.38422 0.19117,-0.26008 0.4263,-1.18724 0.5225,-2.06037 0.0962,-0.87312 0.34332,-2.18426 0.54915,-2.91364 0.20584,-0.72938 0.67205,-1.6473 1.03602,-2.03983 0.36398,-0.39254 1.17816,-1.01632 1.80929,-1.38619 0.63113,-0.36987 1.28617,-0.97681 1.45564,-1.34876 0.16947,-0.37195 0.23994,-0.99687 0.15658,-1.38872 -0.14533,-0.68319 -0.13452,-0.69135 0.26335,-0.19885 0.30993,0.38365 0.4149,1.13312 0.4149,2.96233 0,2.33009 -0.0501,2.54556 -1.03424,4.44734 -0.56883,1.09924 -0.97197,1.99861 -0.89588,1.99861 0.0761,0 1.02109,-0.55018 2.09999,-1.22263 1.07889,-0.67245 2.13689,-1.47285 2.35109,-1.77866 0.24729,-0.35307 0.38946,-1.19286 0.38946,-2.30065 0,-0.95954 0.13005,-2.44815 0.28901,-3.30803 0.15896,-0.85988 0.54104,-1.92354 0.84907,-2.3637 0.30803,-0.44015 0.75688,-0.94437 0.99744,-1.12047 0.24056,-0.17611 0.58812,-0.6841 0.77235,-1.12887 0.18991,-0.45848 0.27706,-1.32236 0.20125,-1.99491 -0.0735,-0.65243 -0.0328,-1.18624 0.0906,-1.18624 0.12338,0 0.50438,0.62508 0.84667,1.38906 0.34229,0.76399 0.77776,1.77799 0.96771,2.25334 0.20201,0.50552 0.28829,1.37071 0.20786,2.08429 -0.0756,0.67101 -0.6176,2.16955 -1.20438,3.33009 -1.0036,1.98495 -1.02491,2.07327 -0.35942,1.4894 0.38909,-0.34137 1.8073,-1.69306 3.15158,-3.00374 2.44413,-2.38307 2.44413,-2.38307 2.44739,-3.78726 0.002,-0.7723 -0.13535,-1.96293 -0.30477,-2.64583 -0.16942,-0.6829 -0.48076,-1.50953 -0.69189,-1.83696 -0.28779,-0.44633 -0.63658,-0.59531 -1.39374,-0.59531 -0.82724,0 -1.11546,-0.14827 -1.59364,-0.81981 -0.55986,-0.78625 -0.56603,-0.85701 -0.15057,-1.72822 0.23825,-0.49963 0.69675,-1.00591 1.01889,-1.12508 0.32214,-0.11916 0.7908,-0.16303 1.04146,-0.0975 0.25066,0.0656 0.65614,0.34061 0.90105,0.61123 0.24492,0.27063 0.50624,1.03267 0.58072,1.69342 -0.007,0.9164 0.59161,1.50323 0.83764,2.19355 0.1915,0.5457 0.50616,1.34937 0.69925,1.78593 0.19309,0.43657 0.38775,1.09141 0.43257,1.45521 0.075,0.60855 0.17977,0.53731 1.30994,-0.8905 0.67565,-0.85358 1.37627,-1.82818 1.55695,-2.16578 0.27866,-0.52068 0.24238,-0.77905 -0.23909,-1.70278 -0.31218,-0.59893 -0.80445,-1.94365 -1.09393,-2.98828 -0.28948,-1.04462 -0.52412,-2.67561 -0.52141,-3.62442 0.003,-1.18085 0.23292,-2.38617 0.7276,-3.82043 0.39748,-1.15242 0.84175,-2.04539 0.98727,-1.98437 0.14553,0.061 0.22976,0.38239 0.18719,0.71417 -0.0426,0.33177 0.35406,1.55884 0.88142,2.7268 1.44737,3.10351 1.17507,4.6797 0.55013,7.65018 -0.16089,0.84894 -0.1446,0.88198 0.19574,0.39687 0.20419,-0.29104 0.98079,-1.67016 1.72578,-3.06472 1.04343,-1.95318 1.35438,-2.80395 1.35386,-3.70416 -5.3e-4,-0.86569 -0.24056,-1.56642 -0.92605,-2.70322 -0.75255,-1.47575 -1.7456,-2.77438 -2.20026,-4.31693 -0.17193,-0.59897 -0.3074,-1.730058 -0.30105,-2.51354 0.006,-0.783481 0.17274,-2.138886 0.36976,-3.012011 0.19702,-0.873125 0.37042,-1.311783 0.38533,-0.974794 0.0149,0.336989 0.16335,0.872771 0.32986,1.190625 0.16651,0.317855 0.88234,1.311008 1.59074,2.207006 0.70839,0.895998 1.48519,2.086624 1.72622,2.645834 0.26564,0.61632 0.44671,1.78181 0.45978,2.95936 l 0.0216,1.94262 0.88388,-2.73637 c 0.48614,-1.505 0.94984,-3.36687 1.03045,-4.137479 0.0891,-0.85213 0.0242,-1.629645 -0.16569,-1.984375 -0.17174,-0.320794 -1.11169,-1.227447 -2.08878,-2.014786 -0.97709,-0.787336 -2.045,-1.838274 -2.37314,-2.335413 -0.32814,-0.497142 -0.72082,-1.400768 -0.87262,-2.008061 -0.1518,-0.607292 -0.23739,-2.23526 -0.19022,-3.617708 0.0675,-1.978597 0.13338,-2.331535 0.30944,-1.658356 0.13443,0.514038 0.69314,1.252869 1.40056,1.852084 0.6473,0.548293 1.64517,1.448707 2.21749,2.000919 0.57232,0.552212 1.27525,1.464021 1.56207,2.02624 0.28683,0.562221 0.5994,1.509395 0.69462,2.104832 0.0952,0.595439 0.27696,1.082614 0.40388,1.082614 0.12692,0 0.23077,-0.247402 0.23077,-0.549781 0,-0.302379 0.1208,-2.452622 0.16331,-3.745439 1.1e-4,-1.583911 0.24264,-5.184775 -0.65424,-6.116068 -0.38482,-0.366953 -1.24771,-0.901231 -1.91753,-1.187283 -0.66982,-0.286054 -1.63804,-0.889021 -2.1516,-1.339929 -0.51355,-0.450909 -1.07276,-0.819833 -1.24267,-0.819833 -0.16992,0 -0.66022,-0.181652 -1.08956,-0.403669 -0.63718,-0.329499 -0.78061,-0.572572 -0.78061,-1.322917 0,-0.56647 0.20308,-1.122325 0.52917,-1.448414 0.29104,-0.291041 0.82682,-0.529166 1.19063,-0.529166 0.3638,0 0.89655,0.235095 1.18389,0.522435 0.28734,0.28734 0.59829,0.824669 0.691,1.194062 0.0985,0.392263 0.0301,0.838502 -0.16439,1.072819 -0.27455,0.330809 -0.22891,0.511956 0.26013,1.032513 0.3262,0.347223 0.90119,0.708644 1.27777,0.803158 0.37657,0.09452 1.16155,0.402244 1.74439,0.683845 0.58285,0.281601 1.09793,0.512001 1.14463,0.512001 0.0467,0 0.0137,-0.68461 -0.0733,-1.521354 -0.087,-0.836745 -0.32209,-2.514457 -0.52242,-3.728252 -0.24621,-1.491723 -0.60297,-2.585085 -1.10091,-3.373922 -0.47556,-0.753382 -1.01799,-1.250725 -1.53041,-1.403177 -0.43656,-0.129884 -1.66823,-0.505413 -2.73705,-0.834507 -1.67268,-0.515027 -2.19772,-0.839935 -3.77031,-2.333156 -1.39232,-0.88742 -1.72906,-2.447085 -2.48848,-3.581501 -0.3638,-0.536093 -0.66146,-1.109244 -0.66146,-1.273667 0,-0.164425 0.27128,-0.0441 0.60285,0.267391 0.33156,0.311488 1.12044,0.748961 1.75306,0.972161 0.63261,0.2232 1.36997,0.405818 1.63856,0.405818 0.2686,0 1.14047,0.288393 1.93749,0.640873 0.79702,0.352484 1.97804,1.169782 2.62448,1.816222 0.64644,0.646441 1.25516,1.538727 1.35271,1.982856 0.0975,0.44413 0.34867,0.87325 0.55806,0.953601 0.20939,0.08035 0.38071,-0.0064 0.38071,-0.19285 0,-0.186414 -0.3403,-1.343538 -0.75623,-2.571382 -0.41592,-1.227846 -1.0144,-2.830811 -1.32996,-3.562143 -0.45101,-1.045282 -0.78445,-1.420138 -1.55887,-1.752513 -0.54183,-0.232545 -1.99817,-0.505674 -3.2363,-0.606954 -1.3151,-0.107574 -2.83529,-0.424021 -3.65593,-0.761031 -0.77894,-0.319879 -2.45254,-1.460942 -3.75662,-2.561262 -1.29351,-1.091406 -2.35702,-2.076731 -2.36334,-2.189607 -0.006,-0.112877 0.34209,-0.02238 0.77426,0.201102 0.43217,0.223483 0.87865,0.383095 0.99219,0.354697 0.11353,-0.0284 1.21846,0.03666 2.45538,0.144566 1.23693,0.107908 3.07979,0.397836 4.09525,0.644282 1.49431,0.362664 2.07047,0.662151 3.02224,1.570979 0.64678,0.617593 1.22613,1.072721 1.28746,1.011396 0.0613,-0.06133 -0.64384,-1.383972 -1.56704,-2.939216 -0.92319,-1.555245 -1.91666,-2.938219 -2.2077,-3.073278 -0.29104,-0.135057 -0.82682,-0.424934 -1.19062,-0.644168 -0.47344,-0.285306 -1.0751,-0.357087 -2.11667,-0.25254 -0.80036,0.08034 -2.06878,0.219335 -2.8187,0.308883 -1.02462,0.122351 -1.81079,0.01831 -3.1633,-0.418642 -0.9899,-0.319805 -2.63851,-1.046647 -3.66359,-1.61521 l -1.86378,-1.033748 1.05833,-0.0069 c 0.58208,-0.0038 1.81308,-0.243501 2.73555,-0.532664 0.92247,-0.289166 2.19799,-0.525754 2.83448,-0.525754 0.63649,0 1.77887,0.24502 2.53863,0.544489 0.75976,0.299468 1.76838,0.884274 2.24137,1.29957 0.473,0.415295 1.11491,0.835988 1.42648,0.934876 0.31157,0.09889 0.64673,0.09955 0.74481,0.0016 0.0981,-0.09807 -0.18456,-0.502539 -0.62806,-0.898811 -0.44351,-0.396274 -1.06182,-1.130575 -1.37402,-1.63178 -0.3122,-0.501206 -1.2887,-1.62193 -2.17001,-2.490502 -0.93201,-1.034237 -2.85086,-1.918953 -4.19258,-2.11741 -0.69153,-0.09511 -1.56862,-0.05457 -1.94911,0.09009 -0.38048,0.144659 -1.09236,0.670716 -1.58195,1.169016 -0.4896,0.498298 -1.15024,1.042207 -1.46809,1.208683 -0.31786,0.166478 -0.80142,0.302686 -1.07459,0.302686 -0.27317,0 -0.75725,-0.242763 -1.07573,-0.539475 -0.31848,-0.296709 -0.57906,-0.837904 -0.57906,-1.20265 0,-0.364747 0.30365,-0.966826 0.67478,-1.337951 0.52705,-0.527055 0.83114,-0.635752 1.38906,-0.496526 0.39286,0.09804 0.9207,0.36425 1.17297,0.591587 0.41749,0.376218 0.58105,0.362485 1.82122,-0.152906 0.74939,-0.311435 1.76338,-0.566246 2.2533,-0.566246 0.48992,0 0.89076,-0.108478 0.89076,-0.241063 0,-0.132585 -0.38696,-0.551099 -0.8599,-0.93003 -0.47294,-0.378932 -1.03403,-0.836 -1.24686,-1.015708 -0.21282,-0.179707 -0.83687,-0.654162 -1.38677,-1.054344 -0.94018,-0.651407 -2.28918,-1.264906 -3.13975,-1.028064 -0.64456,0.187492 -2.21777,0.929942 -3.49602,1.649889 -1.29741,0.73074 -2.81686,1.3747 -3.43958,1.457733 -0.67227,0.08964 -2.18331,-0.07056 -3.80289,-0.403169 -1.47807,-0.303548 -3.14494,-0.553729 -3.70417,-0.555957 -0.55922,-0.0022 -1.19536,-0.119469 -1.41365,-0.260533 -0.32599,-0.210676 -0.29836,-0.257204 0.15474,-0.260532 0.30339,-0.0022 1.31542,-0.249687 2.24896,-0.549907 0.93354,-0.300221 2.29972,-0.953926 3.03595,-1.452679 0.73624,-0.498753 1.92686,-1.088522 2.64584,-1.310598 0.921,-0.284477 1.81534,-0.353902 3.02701,-0.234977 1.2014,0.02114 2.39597,0.577961 3.43959,0.729534 1.0946,0.154528 1.1492,0.136102 0.67703,-0.228462 -1.53149,-0.791604 -3.04194,-1.806009 -4.49399,-2.514122 -1.80828,-0.872625 -3.62398,-1.58653 -4.03489,-1.586457 -0.41091,7.3e-5 -1.40195,0.249636 -2.20232,0.554583 -1.08408,0.413046 -1.86008,0.525645 -3.04271,0.441506 -0.98524,-0.0701 -2.04731,-0.355771 -2.79954,-0.75302 -0.66663,-0.352043 -1.79772,-1.056796 -2.51354,-1.566119 -0.71583,-0.509323 -1.74798,-1.377539 -2.29369,-1.92937 -0.5457,-0.55183 -0.99219,-1.164074 -0.99219,-1.360541 0,-0.27413 0.2284,-0.24077 0.98199,0.143433 0.54009,0.275355 1.12641,0.500645 1.30292,0.500645 0.17652,0 1.21298,-0.357188 2.30324,-0.79375 1.09027,-0.436563 2.43282,-0.79375 2.98346,-0.79375 2.55183,0.03873 3.90583,1.045281 5.19454,2.867335 1.02566,1.415171 1.34195,1.647336 3.5991,2.641788 2.18297,0.961769 2.42567,1.020999 2.05925,0.502551 -0.22845,-0.323244 -0.71135,-1.183029 -1.0731,-1.910633 -0.36175,-0.727604 -0.91504,-2.096822 -1.22953,-3.042708 -0.46423,-1.396272 -0.90208,-2.060953 -2.32756,-3.533365 -1.36793,-1.412968 -1.60965,-1.771448 -1.09431,-1.62287 0.36381,0.104886 1.43537,0.563807 2.38125,1.019823 0.94589,0.456016 1.77933,0.901049 1.85209,0.988961 0.0728,0.08791 0.87799,0.558021 1.78941,1.044687 0.91141,0.486667 2.00909,1.228967 2.43927,1.649558 0.4302,0.42059 1.07825,1.390572 1.44012,2.155515 0.36188,0.764943 0.78567,2.190223 0.94176,3.167288 0.15608,0.977066 0.39224,1.977756 0.5248,2.223756 0.13255,0.245999 0.30344,0.748584 0.37976,1.116855 0.0897,0.433089 0.73938,1.1106 1.83932,1.918229 0.93531,0.686755 1.78114,1.248646 1.87962,1.248646 0.0985,0 -0.0691,-0.348473 -0.37236,-0.774384 -0.30327,-0.425911 -0.77631,-1.705833 -1.05119,-2.844271 -0.27488,-1.138437 -0.57752,-2.632658 -0.67252,-3.32049 -0.31388,-1.186862 -0.70735,-2.666206 -1.33278,-3.535414 -0.36381,-0.476969 -0.66146,-0.935611 -0.66146,-1.019205 0,-0.08359 0.74414,0.354068 1.65364,0.97258 0.90951,0.618513 1.89075,1.304041 2.18054,1.523397 0.28979,0.219356 1.03192,0.904839 1.64918,1.523296 0.61726,0.618457 1.40989,1.692013 1.7614,2.38568 0.35151,0.693668 0.77227,1.755755 0.93503,2.360195 0.23,0.854161 0.20867,1.638457 -0.0957,3.520661 l -0.39168,2.421681 2.13558,2.163448 c 1.52146,1.541325 2.07755,1.973239 1.9338,1.501992 -0.11098,-0.363802 -0.315,-1.078177 -0.45338,-1.5875 -0.13839,-0.509323 -0.27054,-2.482112 -0.29367,-4.383976 -0.0389,-3.202869 -0.0951,-3.560193 -0.76131,-4.844254 l -0.71924,-1.38632 0.69854,0.549474 c 0.3842,0.302211 1.2181,1.028382 1.8531,1.613713 0.63502,0.585332 1.68195,1.711724 2.32653,2.503096 0.81797,1.230681 1.94374,3.041167 1.99185,4.380876 0,0.430446 -0.29765,2.159352 -0.66146,3.842011 -0.3638,1.68266 -0.66145,3.306509 -0.66145,3.608552 0,0.302046 0.27927,0.917596 0.6206,1.367896 0.34134,0.450297 1.29347,1.937332 2.11585,3.304518 l 1.49524,2.485798 0.79457,-1.752383 c 0.43701,-0.963811 0.79457,-1.915372 0.79457,-2.114582 0,-0.19921 -0.23813,-0.636762 -0.52917,-0.972336 -0.30223,-0.34848 -0.52916,-0.989901 -0.52916,-1.495692 0,-0.532781 0.2108,-1.096362 0.52916,-1.414724 0.29104,-0.291042 0.82219,-0.529167 1.18032,-0.529167 0.35813,0 0.89392,0.260575 1.19062,0.579057 0.29672,0.318481 0.53948,0.925557 0.53948,1.349054 0,0.514393 -0.26349,1.016135 -0.79375,1.511472 -0.43656,0.40781 -0.79375,0.976546 -0.79375,1.263857 0,0.287311 -0.28939,1.17675 -0.64309,1.976532 -0.35371,0.799785 -0.71755,1.856396 -0.80856,2.348026 -0.12425,0.671304 0.0424,1.387981 0.66942,2.878251 0.45918,1.091407 1.10263,2.758282 1.42989,3.704167 l 0.59501,1.719792 0.19823,-1.5875 c 0.10902,-0.873125 0.37146,-2.004219 0.58319,-2.513542 0.21173,-0.509323 0.90692,-1.81901 1.54487,-2.910416 0.81175,-1.388759 1.25246,-2.520114 1.46828,-3.769254 0.16961,-0.981684 0.39636,-1.730502 0.5039,-1.664042 0.10754,0.06646 0.3918,0.869659 0.63169,1.784882 0.23989,0.91522 0.55559,2.437945 0.70155,3.38383 0.14595,0.945886 0.26627,2.210673 0.26737,2.810637 0.001,0.599967 -0.25098,1.66274 -0.56017,2.361721 -0.30919,0.698982 -1.06655,1.815444 -1.68301,2.48103 -0.61646,0.665583 -1.4478,1.734002 -1.84742,2.374265 -0.72657,1.164108 -0.72657,1.164108 -0.31019,3.307291 0.22901,1.178748 0.48708,2.798024 0.57349,3.598389 0.0864,0.800364 0.22118,1.752864 0.29948,2.116666 0.11881,0.551969 0.25278,0.356682 0.80936,-1.179782 0.36683,-1.012679 0.96096,-2.306942 1.32028,-2.876132 0.35931,-0.569193 1.34119,-1.774327 2.18194,-2.678078 0.84076,-0.90375 1.73482,-1.957829 1.9868,-2.342398 0.25197,-0.384567 0.61713,-1.208373 0.81147,-1.830681 l 0.35332,-1.13147 0.057,1.058334 c 0.0313,0.582083 0.0301,2.189426 -0.003,3.571874 -0.0328,1.382448 -0.17958,2.989792 -0.32618,3.571875 -0.14661,0.582083 -0.63118,1.631768 -1.07681,2.332633 -0.44564,0.700865 -1.35832,1.681369 -2.02819,2.178894 -0.66987,0.497528 -1.337,0.996497 -1.48252,1.108821 -0.14552,0.112323 -0.58872,0.34816 -0.98488,0.524079 -0.39616,0.175921 -0.88318,0.710861 -1.08227,1.188757 -0.2102,0.504573 -0.43842,2.477505 -0.54428,4.705357 -0.10026,2.110052 -0.24403,4.253177 -0.31949,4.7625 -0.10131,0.6838 0.0849,0.413451 0.71194,-1.033478 0.64461,-1.487504 1.28018,-2.395715 2.63852,-3.770313 1.11413,-1.283173 2.74579,-2.153508 3.80259,-3.146512 1.02196,-0.966528 1.4627,-1.60428 1.5946,-2.307359 0.12887,-0.686938 0.24362,-0.857621 0.39162,-0.58251 0.11513,0.214022 -0.008,1.824755 -0.27315,3.579408 -0.40307,2.665272 -0.64073,3.47078 -1.44417,4.894791 -0.66395,1.394888 -1.52299,2.461674 -2.84523,3.0245 -0.61415,0.256979 -1.83101,0.808659 -2.70414,1.225954 -0.87312,0.417296 -1.80179,1.057474 -2.06372,1.42262 -0.26192,0.365144 -0.82103,1.891874 -1.24246,3.392744 -0.42144,1.50086 -1.02244,3.41357 -1.33556,4.25046 -0.31312,0.83689 -0.51466,1.57627 -0.44787,1.64306 0.0668,0.0668 0.40584,0.015 0.75344,-0.11511 0.3476,-0.13011 1.30829,-0.31956 2.13485,-0.42101 0.82656,-0.10144 1.61517,-0.32575 1.75247,-0.49845 0.1373,-0.17271 0.30637,-0.93513 0.37571,-1.69429 0.0693,-0.75916 0.27757,-1.56283 0.46273,-1.78594 0.18516,-0.22311 0.68468,-0.40565 1.11004,-0.40565 0.46834,0 1.02953,0.25615 1.42281,0.64943 0.35718,0.35719 0.64943,0.83885 0.64943,1.07036 0,0.23151 -0.29225,0.71317 -0.64943,1.07036 -0.35719,0.35719 -0.93793,0.64943 -1.29052,0.64943 -0.3526,0 -0.79583,0.18645 -0.98495,0.41432 -0.18912,0.22788 -0.65018,0.56849 -1.02458,0.75692 -0.3744,0.18843 -1.54412,0.55064 -2.59938,0.80491 -1.63096,0.39299 -2.03249,0.6068 -2.67785,1.42589 -0.41755,0.52997 -1.12527,1.69151 -1.57269,2.5812 -0.44743,0.88969 -1.18258,2.24357 -1.63367,3.00862 -0.4511,0.76506 -0.75813,1.45306 -0.68229,1.52889 0.0758,0.0758 0.76586,-0.39201 1.53339,-1.03966 0.76753,-0.64765 1.87176,-1.46197 2.45385,-1.80962 1.22346,-1.01268 2.74258,-1.21371 3.9978,-1.41387 1.4712,-0.23191 3.01848,-0.55229 3.43841,-0.71195 0.41993,-0.15966 1.17646,-0.60525 1.68117,-0.9902 l 0.91763,-0.69992 -0.63304,1.0488 c -0.34817,0.57684 -1.33947,1.99657 -2.20289,3.15496 -0.86341,1.15838 -1.62204,2.24217 -1.68583,2.40842 -0.0638,0.16624 -0.67554,0.55178 -1.35941,0.85675 -0.68388,0.30498 -1.54108,0.64179 -1.90488,0.74847 -0.3638,0.10668 -2.13961,0.20211 -3.94624,0.21208 -3.19747,-0.005 -3.60527,0.0503 -5.44647,2.44957 -0.7276,0.96625 -1.84064,2.33326 -2.47343,3.03781 -0.63278,0.70454 -0.94165,1.20084 -0.68638,1.10288 0.25528,-0.098 1.10085,-0.56151 1.87904,-1.03012 0.7782,-0.4686 1.92051,-0.92675 2.53847,-1.01809 0.61795,-0.0914 2.56551,-0.14708 4.32791,-0.12384 1.76239,0.0232 3.36973,-0.0633 3.57187,-0.19241 0.20214,-0.12906 0.73755,-0.36459 1.1898,-0.52341 0.82227,-0.28876 0.82227,-0.28876 0.42787,0.39473 -0.21691,0.37593 -0.87106,1.04068 -1.45366,1.47725 -0.58261,0.43656 -1.95904,1.35437 -3.05878,2.03957 -1.09971,0.68521 -2.542,1.36072 -3.20507,1.50113 -0.68069,0.14415 -1.66634,0.1619 -2.2639,0.0408 -0.58208,-0.11799 -1.81435,-0.41647 -2.73836,-0.66329 -0.92402,-0.24682 -1.93606,-0.3837 -2.24896,-0.30418 -0.31291,0.0795 -0.91641,0.41686 -1.34111,0.74966 -0.42471,0.3328 -1.32727,1.08966 -2.0057,1.68191 -0.67842,0.59226 -1.6704,1.41006 -2.20437,1.81734 -0.53398,0.40729 -0.97086,0.84545 -0.97086,0.9737 0,0.12825 0.2311,0.23318 0.51355,0.23318 1.16276,-0.39829 2.3604,-0.6645 3.386,-0.79777 1.42051,-0.18096 3.05899,-0.26862 3.64107,-0.19481 0.58209,0.0738 1.79993,0.28009 2.70632,0.45838 1.16404,0.22897 2.05756,0.24881 3.04271,0.0676 0.7671,-0.14114 1.63285,-0.3387 1.92389,-0.43903 0.40998,-0.14133 0.38148,-0.0748 -0.12655,0.29548 -0.36064,0.26284 -0.86666,0.68626 -1.12448,0.94092 -0.7463,0.5875 -1.5962,1.06617 -2.22063,1.5461 -0.78124,0.60272 -2.12267,1.3068 -3.02457,1.5875 -2.08546,0.82523 -2.74531,0.34257 -4.41783,-0.21923 -0.5457,-0.1671 -1.88516,-0.61656 -2.97656,-0.99881 -1.55282,-0.54386 -2.26391,-0.65949 -3.26969,-0.53171 -0.89335,0.1135 -2.00933,0.59978 -3.65952,1.5946 -1.30581,0.78722 -2.60439,1.50436 -2.88572,1.59365 -0.28133,0.0893 -0.44322,0.27284 -0.35976,0.40788 0.0835,0.13505 0.38759,0.24554 0.67584,0.24554 0.28825,0 0.99266,0.23904 1.56536,0.53121 0.5727,0.29217 1.64349,1.06608 2.37954,1.71979 0.73605,0.65372 1.54266,1.19254 1.79247,1.19738 0.2498,0.005 0.70671,0.21985 1.01536,0.47779 0.30865,0.25795 0.64221,0.72428 0.74124,1.03631 0.10471,0.32991 0.0127,0.89095 -0.21985,1.34066 -0.21995,0.42534 -0.65559,0.84021 -0.96807,0.92192 -0.31249,0.0817 -0.85121,0.041 -1.19716,-0.0906 -0.34595,-0.13152 -0.79394,-0.62974 -0.99553,-1.10713 -0.21061,-0.49874 -0.26861,-0.97492 -0.13636,-1.11934 0.1266,-0.13825 0.23018,-0.44339 0.23018,-0.67811 0,-0.23471 -0.32742,-0.74034 -0.7276,-1.12362 -0.40019,-0.38329 -1.31,-1.00648 -2.0218,-1.38488 -1.04254,-0.55421 -1.68565,-0.69393 -3.30729,-0.71854 -1.66395,-0.0252 -2.38021,0.11134 -4.12977,0.78753 -1.54566,0.98336 -5.47798,1.44328 -6.63843,2.21693 -0.1323,0.21407 0.0229,0.2504 0.52812,0.1236 0.40619,-0.10195 1.48121,0.0107 2.48686,0.2605 0.97425,0.24204 2.4371,0.77392 3.25077,1.18195 0.81367,0.40803 2.12336,1.29684 2.91042,1.97512 0.78706,0.67828 2.08586,1.5493 2.88622,1.9356 1.15071,0.55539 1.47204,0.84753 1.53567,1.39616 0.0521,0.44967 -0.0703,0.75166 -0.34803,0.85823 -0.33051,0.12683 -0.39138,0.0475 -0.26618,-0.34696 0.11251,-0.3545 -0.006,-0.60152 -0.38665,-0.80518 -0.39651,-0.2122 -1.10442,-0.21654 -2.54902,-0.0156 -1.61588,0.22475 -2.3381,0.19978 -3.75998,-0.12998 -0.96796,-0.22448 -2.05904,-0.60173 -2.42464,-0.83834 -0.36559,-0.2366 -1.56107,-1.34996 -2.65661,-2.47414 -1.41116,-1.44803 -2.28486,-2.12484 -2.99672,-2.3214 -0.74035,-0.20442 -1.74814,-0.17849 -3.82893,0.0985 -1.55326,0.20677 -2.91341,0.37827 -3.02255,0.38111 -0.10915,0.003 -0.19844,0.17574 -0.19844,0.38421 0,0.20848 0.26789,0.45433 0.59531,0.54635 0.32742,0.092 1.29336,0.46993 2.14653,0.83981 0.85317,0.36989 1.98426,0.96354 2.51354,1.31922 0.52928,0.35569 1.61717,1.35404 2.41753,2.21856 0.90069,0.97288 2.15723,1.951 3.29749,2.56681 1.05254,0.56845 2.01359,1.30017 2.24191,1.70696 0.2198,0.39159 0.32614,0.78549 0.23631,0.87532 -0.0898,0.0898 -0.44862,-0.12196 -0.79731,-0.47064 -0.51425,-0.51426 -1.01187,-0.66592 -2.63512,-0.80314 -1.10063,-0.093 -3.04291,-0.41206 -4.31617,-0.70895 -1.58616,-0.36984 -2.7646,-0.8382 -3.74294,-1.48759 -1.21086,-0.68104 -1.91553,-1.87484 -2.64115,-2.88786 -0.30348,-0.43263 -0.63119,-1.10612 -0.72824,-1.49664 -0.097,-0.39052 -0.55998,-0.98313 -1.02872,-1.31691 -0.50413,-0.35897 -1.23625,-0.60686 -1.79231,-0.60686 -0.55605,0 -1.28817,0.24789 -1.7923,0.60686 -0.46874,0.33378 -0.93167,0.92639 -1.02872,1.31691 -0.09705,0.39052 -0.424765,1.06401 -0.728245,1.49664 -0.776637,1.20706 -1.592426,2.1868 -2.64115,2.88786 -0.978344,0.64939 -2.15678,1.11774 -3.742941,1.48759 -1.273268,0.29688 -3.215547,0.61591 -4.316177,0.70895 -1.606132,0.13577 -2.123122,0.29114 -2.619084,0.7871 -0.339868,0.33987 -0.672057,0.61794 -0.738203,0.61794 -0.06615,0 -0.120266,-0.1521 -0.120266,-0.33801 z m 18.388537,-25.75997 c -0.29104,-0.0591 -1.24354,-0.30806 -2.11666,-0.55327 -0.87313,-0.24521 -2.450706,-0.96588 -3.505732,-1.60148 -1.055026,-0.63561 -1.918229,-1.19378 -1.918229,-1.24038 0,-0.0466 0.724982,0.1409 1.611071,0.41669 0.886093,0.27578 2.023994,0.50142 2.52867,0.50142 0.50468,0 1.4534,-0.13492 2.10826,-0.29981 0.92783,-0.23363 1.4577,-0.60912 2.40035,-1.70099 0.66532,-0.77064 1.67386,-2.25662 2.24119,-3.30218 0.83857,-1.54542 0.97104,-1.97387 0.7082,-2.29057 -0.19886,-0.23962 -0.58362,-0.337 -0.99959,-0.253 -0.37195,0.0751 -0.86453,0.20946 -1.09461,0.29855 -0.33239,0.12871 -0.65156,-0.45181 -1.55358,-2.82574 -0.62438,-1.64324 -1.79388,-4.23788 -2.59888,-5.76584 -0.805,-1.52797 -2.220939,-3.94569 -3.146539,-5.37271 -0.925599,-1.42701 -2.288841,-3.15342 -3.029426,-3.836455 -0.740584,-0.683033 -1.840219,-1.443588 -2.443631,-1.690119 -0.603411,-0.246531 -1.549508,-0.45489 -2.102437,-0.463021 -0.552929,-0.0081 -1.386366,0.177403 -1.852083,0.412298 -0.465717,0.234894 -1.181611,0.740539 -1.590876,1.123656 -0.409265,0.383117 -0.976254,1.221361 -1.25998,1.862771 -0.283723,0.6414 -0.570926,1.11112 -0.638228,1.04382 -0.0673,-0.0673 -0.0191,-1.30609 0.107077,-2.752868 0.135384,-1.552138 0.425828,-3.041322 0.70849,-3.632637 0.300697,-0.629038 0.992884,-1.343199 1.859201,-1.918229 0.759084,-0.503851 1.68366,-0.916093 2.054614,-0.916093 0.533167,0 0.63731,-0.09682 0.497115,-0.462163 -0.09754,-0.254188 -1.121516,-1.772235 -2.275499,-3.373438 -1.153983,-1.6012 -2.853597,-3.759409 -3.776916,-4.79602 -0.923322,-1.036611 -1.812618,-2.227236 -1.976215,-2.645833 -0.163595,-0.418597 -0.396632,-1.53485 -0.517861,-2.480561 -0.157829,-1.231244 -0.112117,-2.234306 0.160993,-3.532629 0.209775,-0.997236 0.732256,-2.807174 1.161066,-4.022087 0.42881,-1.214911 1.039508,-2.720854 1.357104,-3.346538 0.317597,-0.625684 0.900554,-1.613855 1.29546,-2.195938 0.394909,-0.582083 0.71596,-1.26157 0.713447,-1.509969 -0.0024,-0.248399 -0.193083,-0.524087 -0.423492,-0.612637 -0.230408,-0.08855 -1.230379,-0.331804 -2.222159,-0.540555 -0.991777,-0.208751 -2.742089,-0.379547 -3.889579,-0.379547 -1.147492,0 -2.717286,0.132956 -3.488433,0.295455 -0.771146,0.162499 -1.699741,0.445651 -2.063543,0.629227 -0.363802,0.183573 -1.018646,0.497104 -1.455209,0.696732 -0.436562,0.199628 -1.758817,1.315461 -2.938345,2.479627 -3.227463,3.610706 -4.87593,7.086448 -5.381728,11.565093 -0.214709,2.615273 -0.504203,5.336419 0.07826,7.908653 0.191884,0.815144 0.698812,2.005769 1.126509,2.645833 0.629597,0.846004 1.791436,2.062052 2.717286,2.089795 0.418743,0 0.912498,-0.18212 1.097232,-0.404709 0.256826,-0.309459 0.265788,-0.558549 0.03807,-1.058333 -0.221062,-0.48518 -0.503828,-0.653624 -1.097233,-0.653624 -0.705871,0 -0.799422,-0.08986 -0.799422,-0.767866 0,-0.623395 0.156773,-0.822521 0.833231,-1.058333 0.458279,-0.159758 1.214577,-0.290468 1.680665,-0.290468 0.466087,0 1.251992,0.271455 1.746456,0.603232 0.603314,0.404815 1.016958,0.973341 1.257573,1.728456 0.210558,0.660794 0.286607,1.508702 0.184253,2.054304 -0.09586,0.51099 -0.515334,1.310765 -0.932159,1.77727 -1.6339,1.469587 -4.162512,0.99171 -5.60093,-0.03574 -0.675283,-0.486164 -1.583187,-1.438664 -2.017564,-2.116667 -6.127361,-10.414774 -0.618392,-25.890927 5.625245,-32.47216 1.907241,-1.919663 3.201863,-2.967979 4.631563,-3.7504 6.575388,-3.53244 12.188257,-0.232821 16.393122,3.828828 1.970045,1.914924 3.289001,2.958677 4.491124,3.554034 2.529319,1.076763 4.434281,1.057824 7.230571,0.500316 0.79054,-0.164115 2.37372,-0.768799 3.51818,-1.343741 l 2.08083,-1.045351 -1.70952,1.743514 c -0.94024,0.958935 -2.48343,2.356742 -3.42931,3.106238 -0.94589,0.749498 -2.25557,1.659562 -2.91042,2.022366 -1.02872,0.569944 -1.514423,0.65794 -3.57187,0.647118 -2.117378,-0.01114 -2.637793,-0.118586 -4.696354,-0.969671 -1.273307,-0.526434 -2.315104,-0.936684 -2.315104,-0.911667 0,0.025 0.467503,1.43343 1.038892,3.129811 0.929965,3.174166 2.826038,6.296113 4.046077,8.954074 0.440523,0.945886 1.397145,2.969948 2.125831,4.497917 0.728684,1.527968 2.399828,4.980781 3.713648,7.672916 2.30629,4.725773 2.47184,4.980604 4.79414,7.379895 1.32295,1.366809 2.67326,2.749678 3.00068,3.073058 0.57704,0.5699 0.59531,0.74679 0.59531,5.7651 v 5.17717 l 0.73315,0.52204 c 0.73314,0.52205 0.73314,0.52205 1.07678,-0.18042 0.189,-0.38636 1.27711,-2.84559 2.41802,-5.46497 1.14091,-2.61937 2.62786,-6.01265 3.30433,-7.540624 0.67647,-1.527968 1.4611,-3.282844 1.74362,-3.89972 0.28253,-0.616878 0.51368,-1.171421 0.51368,-1.232318 0,-0.0609 0.54885,-1.282583 1.21965,-2.714862 0.67081,-1.432277 1.33132,-2.89469 1.46781,-3.249809 0.13648,-0.355115 1.2443,-2.914959 2.46182,-5.688541 1.33015,-3.03018 2.2788,-5.570871 2.37688,-6.36579 0.12258,-0.993563 0.0459,-1.553464 -0.30803,-2.248958 -0.34244,-0.672918 -0.76054,-1.021496 -1.52958,-1.275252 -0.81909,-0.270267 -1.26768,-0.281334 -1.98438,-0.04895 -0.50932,0.165139 -1.10463,0.369445 -1.32292,0.454011 -0.27842,0.107863 -0.24413,-0.01828 0.11489,-0.422611 0.28147,-0.317 0.89757,-0.81481 1.36912,-1.106244 0.49641,-0.306797 1.35552,-0.539879 2.04061,-0.553632 0.65079,-0.01307 1.54936,0.158893 1.99683,0.382119 0.81359,0.405871 0.81359,0.405871 0.97135,-0.435107 0.098,-0.522238 -0.0247,-1.332458 -0.32369,-2.137707 -0.39305,-1.058598 -0.69552,-1.409922 -1.64711,-1.913133 -0.79,-0.417764 -1.61047,-0.616408 -2.54597,-0.616408 -0.75918,0 -1.89163,0.180399 -2.51657,0.400889 -1.13623,0.400886 -1.13623,0.400886 -0.64407,-0.142952 0.2707,-0.299111 1.25706,-0.908886 2.19193,-1.355058 2.1378,-0.917866 4.45039,-1.127511 6.30698,0.07744 0.57096,0.377844 1.75047,1.625044 2.62113,2.771563 1.06739,1.40556 1.94687,2.269011 2.7,2.650794 0.95991,0.486604 1.4429,0.549543 3.43504,0.447609 1.49252,-0.07637 2.17673,-0.03084 1.9212,0.127836 -0.21828,0.135546 -1.05172,0.389462 -1.85208,0.564259 -0.80037,0.174797 -2.21416,0.695907 -3.14176,1.158028 -0.98449,0.490461 -2.12518,1.335836 -2.74027,2.030841 -0.57955,0.654844 -1.50185,2.083594 -2.04956,3.175 -0.54771,1.091406 -2.15541,4.60375 -3.57267,7.805208 -1.41727,3.201458 -2.99352,6.713802 -3.50279,7.805208 -0.50927,1.091406 -2.81988,6.187286 -5.13469,11.324181 -2.31482,5.13689 -4.23654,9.4799 -4.27049,9.65113 -0.0394,0.1988 0.53539,0.37068 1.59029,0.47552 1.08487,0.10782 2.2203,0.45454 3.30729,1.00993 0.9104,0.46516 2.07199,1.20855 2.58131,1.65197 0.56684,0.49349 0.72078,0.73086 0.39688,0.61195 -0.29104,-0.10684 -1.03394,-0.3695 -1.65089,-0.58368 -0.73634,-0.25562 -1.52422,-0.32905 -2.29327,-0.21373 -0.65304,0.0979 -1.65396,0.52515 -2.26157,0.9653 -0.66641,0.48275 -1.74258,1.79842 -2.76911,3.38539 -0.94444,1.46006 -2.2706,3.1053 -3.03104,3.76033 -0.80387,0.69243 -2.02307,1.40199 -3.00741,1.75025 -0.9105,0.32214 -1.83405,0.57676 -2.05234,0.56581 -0.21828,-0.0109 -0.635,-0.0682 -0.92604,-0.12733 z m 4.46352,-18.68275 c -0.0844,-0.47294 -2.6101,-5.92005 -5.61267,-12.104687 -3.002569,-6.184635 -5.532658,-11.304322 -5.62242,-11.377083 -1.566853,-3.16815 -3.254108,-6.75117 -4.700027,-9.693362 -1.870995,-3.766343 -3.644446,-6.931813 -3.836458,-7.20862 -0.241002,-0.347432 -0.434649,-0.814276 -0.434649,-2.164799 0,-0.992238 -0.106588,-1.869946 -0.236861,-1.950458 -0.13027,-0.08051 -0.322193,0.06129 -0.426495,0.315113 -0.104301,0.253825 -0.252171,1.860193 -0.328599,3.569703 -0.08883,1.986788 -0.0195,3.705058 0.192154,4.762499 0.182112,0.909865 0.625652,2.769317 0.985639,4.132115 0.359989,1.362797 0.948785,3.267797 1.308433,4.233333 0.359651,0.965536 1.498195,3.422393 2.530102,5.459684 1.031907,2.037292 2.62433,4.915059 3.53872,6.395035 0.914392,1.479978 3.208385,5.005218 5.097761,7.833867 2.20585,3.30245 4.07034,5.77188 5.2099,6.90028 0.97606,0.9665 1.93537,1.75728 2.1318,1.75728 0.25801,0 0.31454,-0.23867 0.20367,-0.8599 z M 95.38269,33.86092 c 0.697582,-0.576448 1.732055,-1.777439 2.29883,-2.668867 0.566774,-0.891428 1.083111,-1.568166 1.147416,-1.503862 0.0643,0.06431 -0.137822,0.782593 -0.44917,1.596195 -0.412872,1.078898 -0.82618,1.65072 -1.527043,2.112703 -0.528526,0.348384 -1.284189,0.831087 -1.679252,1.072673 -0.395063,0.241586 -0.794978,0.439247 -0.888704,0.439247 -0.09373,0 0.400341,-0.47164 1.097923,-1.048089 z m 15.19345,0.593866 c -0.3638,-0.234557 -1.09389,-0.711015 -1.62241,-1.058795 -0.70138,-0.461521 -1.11387,-1.031916 -1.52705,-2.111605 -0.31134,-0.813602 -0.51347,-1.53189 -0.44917,-1.596195 0.0643,-0.0643 0.58065,0.612434 1.14742,1.503862 0.56677,0.891428 1.60125,2.092419 2.29883,2.668867 0.69758,0.576449 1.16607,1.041844 1.04108,1.034211 -0.12498,-0.0076 -0.5249,-0.205788 -0.8887,-0.440345 z M 98.934475,31.905783 c 0,-0.05104 0.13071,-0.467764 0.290468,-0.926042 0.159755,-0.458277 0.455485,-0.833231 0.657177,-0.833231 0.29829,0 0.28432,0.172767 -0.07489,0.926041 -0.242879,0.509323 -0.538609,0.926042 -0.657177,0.926042 -0.11857,0 -0.21558,-0.04176 -0.21558,-0.09281 z m 7.064745,-0.833232 c -0.35921,-0.753274 -0.37318,-0.926041 -0.0749,-0.926041 0.20169,0 0.49742,0.374954 0.65718,0.833231 0.15976,0.458278 0.29046,0.874997 0.29046,0.926042 0,0.05105 -0.097,0.09281 -0.21558,0.09281 -0.11856,0 -0.41429,-0.416719 -0.65717,-0.926042 z"
       id="path722" /></g></svg>
